<svg width="200" height="200" viewBox="0 0 200 200" fill="none" xmlns="http://www.w3.org/2000/svg">
<path d="M54.1663 166.667C41.5275 166.667 30.7302 162.292 21.7747 153.542C12.8136 144.792 8.33301 134.097 8.33301 121.458C8.33301 110.625 11.5969 100.972 18.1247 92.4998C24.6525 84.0276 33.1941 78.6109 43.7497 76.2498C46.1108 66.2498 52.0136 56.736 61.458 47.7082C70.9024 38.6804 80.9719 34.1665 91.6663 34.1665C96.2497 34.1665 100.175 35.7971 103.441 39.0582C106.702 42.3248 108.333 46.2498 108.333 50.8332V101.25L121.666 88.3332L133.333 99.9998L99.9997 133.333L66.6663 99.9998L78.333 88.3332L91.6663 101.25V50.8332C81.1108 52.7776 72.9163 57.8804 67.083 66.1415C61.2497 74.4082 58.333 82.9165 58.333 91.6665H54.1663C46.1108 91.6665 39.2358 94.5137 33.5413 100.208C27.8469 105.903 24.9997 112.778 24.9997 120.833C24.9997 128.889 27.8469 135.764 33.5413 141.458C39.2358 147.153 46.1108 150 54.1663 150H154.166C160 150 164.93 147.986 168.958 143.958C172.986 139.93 175 135 175 129.167C175 123.333 172.986 118.403 168.958 114.375C164.93 110.347 160 108.333 154.166 108.333H141.666V91.6665C141.666 84.9998 140.139 78.7832 137.083 73.0165C134.027 67.2554 130 62.361 125 58.3332V38.9582C135.277 43.8193 143.402 51.0082 149.375 60.5248C155.347 70.036 158.333 80.4165 158.333 91.6665C167.916 92.7776 175.869 96.9082 182.191 104.058C188.508 111.214 191.666 119.583 191.666 129.167C191.666 139.583 188.022 148.439 180.733 155.733C173.439 163.022 164.583 166.667 154.166 166.667H54.1663Z" fill="#F8F8F8"/>
</svg>
